<svg width="20" height="14" viewBox="0 0 20 14" fill="none" xmlns="http://www.w3.org/2000/svg">
<path fill-rule="evenodd" clip-rule="evenodd" d="M1.68176 7C1.77528 7.15195 1.90212 7.34986 2.06129 7.58027C2.44868 8.14106 3.02244 8.88694 3.76756 9.63001C5.27214 11.1304 7.38233 12.5303 10.0001 12.5303C12.6178 12.5303 14.728 11.1304 16.2326 9.63001C16.9777 8.88694 17.5515 8.14106 17.9389 7.58027C18.098 7.34986 18.2249 7.15195 18.3184 7C18.2249 6.84804 18.098 6.65014 17.9389 6.41973C17.5515 5.85894 16.9777 5.11306 16.2326 4.36999C14.728 2.86955 12.6178 1.46966 10.0001 1.46966C7.38233 1.46966 5.27214 2.86955 3.76756 4.36999C3.02244 5.11306 2.44868 5.85894 2.06129 6.41973C1.90212 6.65014 1.77528 6.84804 1.68176 7ZM19.2143 7C19.9173 6.67137 19.9172 6.67112 19.917 6.67085L19.9157 6.66843L19.9129 6.6632L19.9035 6.64604C19.8956 6.63168 19.8844 6.61152 19.8699 6.58595C19.841 6.53481 19.7989 6.46197 19.7439 6.37054C19.6339 6.18776 19.4719 5.93008 19.2594 5.62241C18.8353 5.00847 18.2049 4.18806 17.3794 3.36484C15.7428 1.7327 13.2458 0 10.0001 0C6.75429 0 4.25737 1.7327 2.62073 3.36484C1.79523 4.18806 1.16485 5.00847 0.740751 5.62241C0.528212 5.93008 0.366197 6.18776 0.256228 6.37054C0.201214 6.46197 0.159138 6.53481 0.130193 6.58595C0.115719 6.61152 0.10452 6.63168 0.0966214 6.64604L0.0872492 6.6632L0.0844233 6.66843L0.0831193 6.67085C0.0829734 6.67112 0.0828402 6.67137 0.785855 7L0.0831193 6.67085C-0.0275202 6.87773 -0.0277993 7.12175 0.0828402 7.32863L0.785855 7C0.0828402 7.32863 0.0826942 7.32835 0.0828402 7.32863L0.0844233 7.33157L0.0872492 7.3368L0.0966214 7.35396C0.10452 7.36832 0.115719 7.38848 0.130193 7.41405C0.159138 7.46519 0.201214 7.53803 0.256228 7.62946C0.366197 7.81224 0.528212 8.06992 0.740751 8.37759C1.16485 8.99153 1.79523 9.81194 2.62073 10.6352C4.25737 12.2673 6.75429 14 10.0001 14C13.2458 14 15.7428 12.2673 17.3794 10.6352C18.2049 9.81194 18.8353 8.99153 19.2594 8.37759C19.4719 8.06992 19.6339 7.81224 19.7439 7.62946C19.7989 7.53803 19.841 7.46519 19.8699 7.41405C19.8844 7.38848 19.8956 7.36832 19.9035 7.35396L19.9129 7.3368L19.9157 7.33157L19.917 7.32915C19.9172 7.32888 19.9173 7.32863 19.2143 7ZM19.2143 7L19.917 7.32915C20.0277 7.12227 20.0277 6.87773 19.917 6.67085L19.2143 7Z" fill="#676767"/>
<path fill-rule="evenodd" clip-rule="evenodd" d="M9.99649 5.38372C9.65449 5.38372 9.32017 5.47854 9.03581 5.65618C8.75144 5.83381 8.52981 6.0863 8.39893 6.3817C8.26805 6.6771 8.23381 7.00215 8.30053 7.31574C8.36725 7.62934 8.53194 7.91739 8.77377 8.14348C9.0156 8.36957 9.32371 8.52354 9.65914 8.58592C9.99457 8.6483 10.3423 8.61628 10.6582 8.49392C10.9742 8.37156 11.2443 8.16436 11.4343 7.8985C11.6243 7.63265 11.7257 7.32009 11.7257 7.00035C11.7257 6.5716 11.5435 6.1604 11.2192 5.85722C10.8949 5.55405 10.4551 5.38372 9.99649 5.38372ZM8.16246 4.4342C8.70533 4.09507 9.34358 3.91406 9.99649 3.91406C10.872 3.91406 11.7117 4.23922 12.3308 4.81802C12.9499 5.39681 13.2977 6.18182 13.2977 7.00035C13.2977 7.61076 13.1041 8.20747 12.7413 8.715C12.3786 9.22254 11.863 9.61812 11.2598 9.85171C10.6566 10.0853 9.99283 10.1464 9.35246 10.0273C8.7121 9.90826 8.12389 9.61432 7.66221 9.18269C7.20053 8.75106 6.88612 8.20114 6.75875 7.60246C6.63137 7.00378 6.69674 6.38323 6.9466 5.81928C7.19646 5.25534 7.61958 4.77332 8.16246 4.4342Z" fill="#676767"/>
</svg>
